<?xml version="1.0" encoding="utf-8"?>
<!-- Generator: Adobe Illustrator 27.0.0, SVG Export Plug-In . SVG Version: 6.00 Build 0)  -->
<svg version="1.1" id="Layer_1" xmlns="http://www.w3.org/2000/svg" xmlns:xlink="http://www.w3.org/1999/xlink" x="0px" y="0px"
	 viewBox="0 0 238.6 150" style="enable-background:new 0 0 238.6 150;" xml:space="preserve">
<style type="text/css">
	.st0{fill:none;}
	.st1{fill:#656765;}
</style>
<rect class="st0" width="238.6" height="150"/>
<g id="layer1">
	<g id="g10">
		<g id="g12">
			<path id="path14" class="st1" d="M207.1,60.6L207.1,60.6c-1,1.7-1.7,3.7-1.9,5.7c-0.3,2.5-0.9,4.9-1.8,7.3
				c-1.2,3.3-3.4,6.3-6.2,8.5c-3.3-8.8-8.2-16.8-14.2-23.9c3.4-1.3,7.1-1.6,10.6-1c2.6,0.4,5,1.2,7.4,2.1
				C203,60.2,205.1,60.6,207.1,60.6L207.1,60.6z"/>
			<path id="path16" class="st1" d="M170,24.5L170,24.5c0,2,0.4,4,1.3,5.9c0.9,2.3,1.7,4.7,2.2,7.1c0.7,3.5,0.3,7.1-1,10.4
				c-7.3-6-15.6-10.6-24.6-13.9c2.3-2.8,5.4-4.8,8.8-6c2.5-0.9,4.9-1.4,7.5-1.7C166.2,26.1,168.2,25.5,170,24.5L170,24.5z"/>
			<path id="path18" class="st1" d="M201.2,96.2c3.6,0.5,6.9,2,9.7,4.3c2,1.7,3.8,3.6,5.4,5.6c1.2,1.6,2.6,3,4.3,4h-18.3
				C202.4,105.4,202.1,100.8,201.2,96.2z"/>
			<path id="path20" class="st1" d="M68.5,24.5L68.5,24.5c1.8,1,3.8,1.6,5.9,1.9c2.6,0.3,5.1,0.9,7.5,1.7c3.4,1.2,6.5,3.2,8.8,6
				c-8.9,3.1-17.3,7.8-24.6,13.9c-1.3-3.3-1.7-6.9-1-10.4c0.5-2.5,1.2-4.8,2.2-7.1C68.1,28.5,68.5,26.6,68.5,24.5L68.5,24.5z"/>
			<path id="path22" class="st1" d="M31.5,60.6L31.5,60.6c2,0,4.1-0.4,6-1.3c2.4-0.9,4.8-1.7,7.4-2.1c3.6-0.6,7.2-0.3,10.6,1
				c-6.2,7-11,15.1-14.3,23.8c-2.8-2.2-4.9-5.2-6.1-8.5c-0.9-2.4-1.4-4.8-1.8-7.3C33.1,64.3,32.5,62.3,31.5,60.6L31.5,60.6z"/>
			<path id="path24" class="st1" d="M17.9,110c1.8-1,3.3-2.4,4.5-4c1.5-2,3.3-3.8,5.3-5.4c2.8-2.3,6.1-3.7,9.7-4.3
				c-0.8,4.6-1.2,9.2-1.2,13.8L17.9,110z"/>
			<path id="path26" class="st1" d="M119.3,11.2L119.3,11.2c1,1.8,2.5,3.2,4.2,4.4c2,1.5,4,3.2,5.7,5.1c2.3,2.7,3.8,6,4.3,9.6
				c-9.4-1.5-19-1.5-28.4,0c0.6-3.5,2.1-6.8,4.5-9.5c1.7-1.9,3.6-3.7,5.6-5.1C116.8,14.6,118.3,13,119.3,11.2z"/>
		</g>
		<g id="g28">
			<path id="path30" class="st1" d="M102.4,110.2h6.3c0.9-5.2-0.8-9.1-6.1-8.2c-4.5,0.9-9.4,5.2-12.3,8.2h8.2
				c0.9-0.6,2.7-1.3,3.5-0.8C102.2,109.6,102.4,109.9,102.4,110.2z"/>
			<path id="path32" class="st1" d="M130.7,110.1h7.8c0.6-9.1-1.3-18.2-5.4-26.4c-3.7-7.3-10.6-12.3-18.8-13.5
				c-12.2-1.8-24.5,3.3-34.9,10.5C68,88.5,58.7,99.2,50.5,110h10.4c9.3-12.8,30.7-32.4,46.5-32.5c5-0.3,9.9,1.3,13.9,4.4
				c2.7,2.4,6,7,5.9,10.6c0,2.2-2.2,2.9-4.1,2.1c-1.5-0.8-2.7-1.9-3.6-3.3c-3.4-4.6-9-6.9-14.6-6c-7,0.9-15.6,6.2-21.3,11.1
				c-4.8,4.2-9.3,8.7-13.4,13.4h11c3.9-4.8,8.7-8.9,13.9-12.2c2-1.2,4-2.2,6.1-3c5.7-2,11.4-1.4,13.9,5.5c1,3.1,1.3,6.3,0.9,9.5v0.2
				h7.6v-0.3c0-2.4,0-4,0.2-6.4c0.2-2.1,0.9-4.3,2.8-4.4c4.2-0.9,3.9,8.2,4,11.1L130.7,110.1z"/>
			<path id="path34" class="st1" d="M146.7,110.1h7.9c0.5-9.1-0.5-18.2-3.1-26.9c-0.5-1.7-1.2-3.3-1.9-4.9
				c-1.7-3.7-3.9-7.1-6.5-10.2c-3.1-3.6-6.6-6.5-10.5-9c-1.2-0.8-2.5-1.4-3.7-2l0,0c-1.3-0.6-2.6-1.1-3.9-1.6l0,0
				C109.7,50.1,94,53.9,81,60.8c-2.6,1.4-5,2.8-7.3,4.3c-2.4,1.5-4.5,3.1-6.5,4.8l0,0c-3.1,2.4-6,5-8.8,7.8
				c-0.6,0.6-1.2,1.3-1.8,1.9c-1.5,1.7-4,4.1-3.2,6.6c0.5,2,3.1,1.4,4.1,0.7c1.4-0.9,2.9-1.9,4.2-3c1.8-1.4,3.5-3.1,5.2-4.5
				c6.5-5.6,13.9-10.3,21.8-13.8c1.6-0.7,3.2-1.3,4.8-1.9c1.5-0.6,3.1-1,4.8-1.4l0,0c13.6-3.4,28.4-1.2,37.7,9.6
				C145,82.4,146.7,96.3,146.7,110.1L146.7,110.1z M48.8,98.4c0.9-0.9,1.8-1.9,2.6-2.9c1.1-1.1,1.4-2.8,0.9-4.3
				c-0.2-0.4-0.4-0.8-0.8-1c-0.3-0.3-0.7-0.4-1.1-0.6c-1.3-0.3-2.6,0.3-3.3,1.4c-1.5,1.7-2.6,3.8-3.1,6c-0.1,0.3-0.1,0.8,0,1.1
				c0,0.3,0.2,0.7,0.3,1l0,0c0.3,0.5,0.8,0.8,1.3,0.8h0.9C47.5,99.7,48.2,99.1,48.8,98.4L48.8,98.4z"/>
			<path id="path36" class="st1" d="M166.5,110.1L166.5,110.1c1.3,0,2.5-0.6,3.1-1.7c0.2-0.3,0.3-0.6,0.4-0.9
				c0.1-0.4,0.2-0.8,0.3-1.2l0,0c0.6-21.3-6.1-39-17.5-51.1c-2.2-2.3-4.6-4.4-7.1-6.4c-2.6-1.9-5.3-3.6-8.2-4.9l0,0
				c-11.6-5.5-24.7-7.2-37.3-4.9c-2,0.4-4.1,0.9-6.1,1.4l0,0c-11.1,3.3-21.2,9.4-29.4,17.5c-1.6,1.6-3.1,3.3-4.7,5
				c-0.8,0.9-1.4,1.8-2.2,2.6c5.8-4.8,12-9.1,18.6-12.6c1.4-0.8,3-1.5,4.3-2.1c1.4-0.7,3-1.3,4.5-1.9l0,0c5.5-2.1,11.3-3.6,17.2-4.3
				c5.7-0.6,11.6-0.5,17.3,0.4c4,0.6,8,1.7,11.7,3.1c0.8,0.3,1.4,0.6,2.2,0.9c0.7,0.3,1.4,0.6,2,1l0,0c12.8,6.8,21.6,20.8,25.5,36.6
				c1.6,6.2,2.4,12.6,2.3,19l0,0v0.2c-0.1,1.4,0.6,2.9,1.7,3.7c0.2,0.1,0.4,0.2,0.6,0.3l0,0c0.3,0,0.5,0,0.8,0L166.5,110.1z"/>
			<path id="path38" class="st1" d="M143.3,39c31.5,10.2,52.9,38.8,53,71.1h-15.2C182.1,81.2,169.2,55,143.3,39L143.3,39z"/>
		</g>
		<path id="path40" class="st1" d="M54.6,133.3h-6.1l-1.5,5.2H42l6.5-20h6.2l6.5,20h-5.1L54.6,133.3z M49.2,129.9h4.7
			c-1.2-3.9-2-6.5-2.4-8.1l0,0l-0.9,3.8L49.2,129.9L49.2,129.9z M77,133.3h-6.1l-1.5,5.2h-4.9l6.5-20h6.2l6.5,20h-5.1L77,133.3z
			 M71.6,129.9h4.7c-1.3-3.9-2-6.5-2.4-8.1l0,0l-0.9,3.8L71.6,129.9L71.6,129.9z M88.5,138.4v-19.6c2.1-0.3,4.3-0.4,6.5-0.4
			c3.3-0.3,6.7,0.7,9.4,2.6c2,1.8,3,4.4,2.9,7.1c0.2,3-1,5.9-3.2,7.9c-2.9,2.1-6.5,3.1-10,2.8C92.2,138.7,90.3,138.6,88.5,138.4
			L88.5,138.4z M93.2,122.1v13c0.6,0.1,1.1,0.1,1.7,0c2,0.2,3.9-0.5,5.4-1.8c1.4-1.4,2-3.2,1.9-5.2c0.1-1.8-0.5-3.5-1.8-4.7
			c-1.4-1.2-3.2-1.7-5-1.6C94.7,121.8,94,121.8,93.2,122.1L93.2,122.1z M112.2,118.5h4.7v7.7h8.1v-7.7h4.7v20H125v-8.3h-8v8.3h-4.7
			L112.2,118.5z M146.7,133.3h-6.1l-1.5,5.2h-4.9l6.5-20h6.2l6.6,20h-5.1L146.7,133.3L146.7,133.3z M141.3,129.9h4.7
			c-1.3-3.9-2-6.5-2.4-8.1l0,0l-1,3.8L141.3,129.9L141.3,129.9z M169.3,133.3h-6.1l-1.5,5.2h-4.9l6.5-20h6.2l6.6,20H171L169.3,133.3
			L169.3,133.3z M163.8,129.9h4.7c-1.2-3.9-2-6.5-2.4-8.1l0,0l-1,3.8L163.8,129.9L163.8,129.9z M180.7,138.4v-19.6
			c2.1-0.3,4.3-0.5,6.4-0.4c2.3-0.2,4.7,0.3,6.7,1.5c1.4,1,2.1,2.6,2,4.3c0,1.1-0.3,2.1-1,3c-0.7,0.9-1.6,1.5-2.6,1.9l0,0
			c1.4,0.7,2.5,2,2.8,3.7c1,3.6,1.6,5.4,1.7,5.7h-4.8c-0.7-1.5-1.1-3.1-1.4-4.7c-0.2-0.9-0.5-1.8-1.2-2.5c-0.7-0.5-1.5-0.8-2.3-0.8
			h-1.5v8L180.7,138.4z M185.3,121.8v5.5h2c1,0.1,2-0.2,2.9-0.8c0.7-0.5,1-1.3,1-2.1c0.1-0.9-0.3-1.6-0.9-2.1
			c-0.8-0.5-1.7-0.8-2.6-0.8C186.9,121.6,186.2,121.6,185.3,121.8L185.3,121.8z"/>
	</g>
</g>
</svg>
