<?xml version="1.0" encoding="utf-8"?>
<!-- Generator: Adobe Illustrator 27.0.0, SVG Export Plug-In . SVG Version: 6.00 Build 0)  -->
<svg version="1.1" id="Layer_1" xmlns="http://www.w3.org/2000/svg" xmlns:xlink="http://www.w3.org/1999/xlink" x="0px" y="0px"
	 viewBox="0 0 628.9 150" style="enable-background:new 0 0 628.9 150;" xml:space="preserve">
<style type="text/css">
	.st0{fill:#656765;}
</style>
<g>
	<path class="st0" d="M71.7,41.1l21,50.5h-40L71.7,41.1z M52.4,10L0,140h34.3l9.7-25.7h58.1l10.7,25.7h34.9L90,10H52.4z"/>
	<polygon class="st0" points="274.4,10 302.6,10 302.6,140 270.2,140 270.2,58.8 235.1,99.6 230.2,99.6 195.1,58.8 195.1,140 
		162.7,140 162.7,10 190.9,10 232.7,58.3 	"/>
	<g>
		<path class="st0" d="M384.7,10c47.5,0,71.8,29.5,71.8,65.2c0,37.4-23.6,64.8-75.5,64.8h-53.7V10H384.7z M359.8,116.2H381
			c32.6,0,42.3-22.1,42.3-41.2c0-22.3-12-41.2-42.7-41.2h-20.8V116.2z"/>
		<polygon class="st0" points="588.1,40.9 521,40.9 480.2,0 628.9,0 628.9,148.7 588.1,107.9 		"/>
		<polygon class="st0" points="521,107.9 521,49.1 478.9,91.1 478.9,150 537.8,150 579.9,107.9 		"/>
	</g>
</g>
</svg>
