<?xml version="1.0" encoding="utf-8"?>
<!-- Generator: Adobe Illustrator 27.0.0, SVG Export Plug-In . SVG Version: 6.00 Build 0)  -->
<svg version="1.1" id="Layer_1" xmlns="http://www.w3.org/2000/svg" xmlns:xlink="http://www.w3.org/1999/xlink" x="0px" y="0px"
	 viewBox="0 0 528.4 150" style="enable-background:new 0 0 528.4 150;" xml:space="preserve">
<style type="text/css">
	.st0{fill:#656765;}
</style>
<g>
	<path class="st0" d="M0,149.8V1.6h147.5v148.3H0V149.8z M30.3,24.7V131l92.5-54.4L30.3,24.7z M197.1,148.3h-25.4V82.2h25.6
		c19,0,30.3,15,30.3,34.1C227.6,135.5,217.5,148.3,197.1,148.3z M219.7,67.2l-5.1-14.7h-24.3l-4.4,14.7h-13.3L194.9,1h13.4l25,66.2
		H219.7z M196,93.4h-10.4V138h11.2c14.9,0,17.1-12.6,16.9-22.3C213.7,108.1,210.1,93.4,196,93.4z M210.1,39.2l-8.4-24.3L194.3,39
		l-0.5,4.1h16.4C210.2,40.9,210.4,40.5,210.1,39.2z M232.3,148.3V82.2H281v11.1h-35.4v14.1h31.3v12h-31.1V137h36.4v11.2h-49.9V148.3
		z M278.2,67.2l-29.1-44.7v44.7h-13.3V1h13.6l28,44.1V1h13.3v66.2H278.2z M319.8,148.1h-12.6l-21.8-62.4v-3.5h13.3l14.9,48.4
		L328,82.4h13v3.5L319.8,148.1z M340.8,67.2l-5.1-14.7h-24.3L307,67.2h-13.3L316,1h13.4l25,66.2H340.8z M331.3,39.5l-8.4-25l-8.4,25
		v3.6h16.8h0.3C331.6,40.9,331.6,40.6,331.3,39.5z M345,148.1V82.4h14.1v65.8H345V148.1z M357.2,67.2V1h13.1v55h29.6v11.2H357.2z
		 M394,149.8c-36.2,0.8-42.5-69.1,0.2-68.6c23.7,0,27.8,19.8,28.8,22.8h-13.1c-2.1-4.1-7.4-12-14.1-12.5c-23.4-1.6-23.4,47.9,0,47.9
		c11.2,0,13.9-11.2,14.5-12.5h12.8C423.1,127.1,421.5,149.5,394,149.8z M430.4,68.3c-42.5,0-40.9-68.6,0.5-68.3
		C470.9,0.3,472,68.3,430.4,68.3z M429.9,57.2c24.5,0.2,24.5-45.7,0.5-46C406.5,11.1,405.7,57.1,429.9,57.2z M425.5,148.3V82.2h46.9
		v12h-34.3v13.6h30.3v11.9h-30.2V137H474v11.2h-48.5V148.3z M514.6,65.6v-6.3c-1.4,1.3-7.7,9.3-19.6,9c-40.5-0.9-40.6-67.3,1.9-68.1
		c10.3,0,18.8,6.5,22.1,11.1c4,5.2,4.3,9.6,4.4,10.7h-11.2c-2.5-4.1-6.5-11.1-15.8-11.1c-24.7-0.3-26.2,46.3-0.2,46.8
		c11.5,0.3,17.4-11.7,17.4-11.9v-3.5h-15.8V32.1H525v33.5H514.6z M502.3,150c-28,0-27.7-21.5-27.7-21.5h12.6c0,0-0.9,10.4,13.1,11.4
		c3.5,0.2,14.9-1.3,14.9-9.2c0-9.2-11.5-8.7-18.8-10.7c-7.3-1.9-21-5.1-21-17.9c0-11.2,9.2-20.9,26.9-20.9
		c23.7,0.2,23.6,18.5,23.7,19.6h-12.2c-0.8-2.7-1.6-9.2-12.2-9.5c-5.2,0-13.1,1.7-13.1,7.9c0,7.7,8.9,8.9,18.2,10.3
		c14.1,2.7,22.1,7,21.7,19.9C528.1,140.8,518,150,502.3,150z"/>
</g>
</svg>
