<?xml version="1.0" encoding="utf-8"?>
<!-- Generator: Adobe Illustrator 27.0.0, SVG Export Plug-In . SVG Version: 6.00 Build 0)  -->
<svg version="1.1" id="Layer_1" xmlns="http://www.w3.org/2000/svg" xmlns:xlink="http://www.w3.org/1999/xlink" x="0px" y="0px"
	 viewBox="0 0 698.4 150" style="enable-background:new 0 0 698.4 150;" xml:space="preserve">
<style type="text/css">
	.st0{fill:#656765;}
</style>
<g>
	<g>
		<path class="st0" d="M2.3,0H0v150h60.5c34.9,0,55-15.6,55-42.8c0-21.1-9.6-33.8-27.1-38c8.8-6.2,13.4-15.6,13.4-29.1
			C101.8,13.5,86.5,0,56.3,0H2.3z M42.8,33.6c12.7,0,19.6,1.9,19.6,11.7c0,8.3-5.2,11.7-18.1,11.7c0,0-1,0-1.9,0
			c0-3.6,0-19.8,0-23.4C42.5,33.6,42.8,33.6,42.8,33.6z M44,89.9h3.1c7.9-0.1,17.7-0.2,22.4,4.5c2.1,2.1,3.1,5,3.1,9
			c0,3.4-1,6.1-2.9,8c-5.1,5.1-15.8,5.1-23.6,5c0,0-2.4,0-3.6,0c0-3.7,0-22.8,0-26.5C43.2,89.9,44,89.9,44,89.9z"/>
		<g>
			<path class="st0" d="M206.4,0h-85v150h87.4v-36.7c0,0-40.7,0-44.9,0c0-3.5,0-16.9,0-20.4c4.2,0,42.6,0,42.6,0V56.3
				c0,0-38.4,0-42.6,0c0-3.4,0-16.2,0-19.6c4.2,0,44.9,0,44.9,0V0H206.4z"/>
		</g>
		<g>
			<path class="st0" d="M257.1,0H217v150h87.7v-36.7c0,0-41.1,0-45.3,0c0-4.5,0-113.3,0-113.3H257.1z"/>
		</g>
		<g>
			<path class="st0" d="M537.5,0h-85v150h87.4v-36.7c0,0-40.7,0-44.9,0c0-3.4,0-16.9,0-20.3c4.2,0,42.6,0,42.6,0V56.3
				c0,0-38.4,0-42.6,0c0-3.4,0-16.2,0-19.6c4.2,0,44.9,0,44.9,0V0H537.5z"/>
		</g>
		<g>
			<path class="st0" d="M696,0h-40.1c0,0,0,73.9,0,84.8C649.1,76.1,589.8,0,589.8,0h-41.3v150H591c0,0,0-74.1,0-85
				c6.8,8.8,66.1,85,66.1,85h41.3V0H696z"/>
		</g>
		<g>
			<g>
				<path class="st0" d="M367.9,0h-7.7H312v150h55.9c42,0,76.1-33.6,76.1-75C444.1,33.6,409.9,0,367.9,0z M354.5,36.8
					c23.4,0.5,37.9,15,37.9,38.2c0,23.5-14.2,37.6-37.9,38.2V36.8z M364,119c21.5-5.1,35.5-18.3,35.8-44.1
					c-0.3-25.8-14.3-39-35.8-44.1c24,3.6,43,16.3,43.1,44l0,0V75l0,0C407,102.7,388,115.4,364,119z M413.3,74.9
					C413,44,396.1,23.7,370.4,17.6c28.6,4.3,50.8,24.1,50.9,57.2v0.1l0,0c0,33.1-22.4,52.8-51,57.1C396,125.9,413,105.8,413.3,74.9z
					 M379.2,143.8c28.6-8.2,48.7-33,49-68.7v-0.4c-0.4-35.6-20.4-60.4-49-68.5c32.6,6.7,57.6,30.5,57.8,68.3v0.8
					C436.9,113.2,411.9,137.1,379.2,143.8z"/>
			</g>
		</g>
	</g>
</g>
</svg>
