<?xml version="1.0" encoding="utf-8"?>
<!-- Generator: Adobe Illustrator 27.0.0, SVG Export Plug-In . SVG Version: 6.00 Build 0)  -->
<svg version="1.1" id="Layer_1" xmlns="http://www.w3.org/2000/svg" xmlns:xlink="http://www.w3.org/1999/xlink" x="0px" y="0px"
	 viewBox="0 0 371.5 150" style="enable-background:new 0 0 371.5 150;" xml:space="preserve">
<style type="text/css">
	.st0{fill:#656765;}
</style>
<g>
	<polygon class="st0" points="371.5,10.7 309.7,10.7 313.5,0 371.5,0 	"/>
	<path class="st0" d="M206.7,0h57.4l3.8,10.7h-61.2C206.7,10.7,206.6,0,206.7,0z"/>
	<path class="st0" d="M161.1,0c9.5,0.9,17.7,4.3,24.7,10.7H81.7V0H161.1z"/>
	<g>
		<rect y="0" class="st0" width="72.3" height="10.7"/>
		<path class="st0" d="M36.2,5.3"/>
	</g>
	<path class="st0" d="M371.5,30.7h-68.9c0,0,3.8-10.6,3.7-10.6h65.2V30.7z"/>
	<polygon class="st0" points="274.9,30.7 206.7,30.7 206.7,20.1 271.2,20.1 	"/>
	<path class="st0" d="M193.9,20.1c1.4,3.5,3,6.5,3,10.6H81.7V20.1H193.9z"/>
	<g>
		<rect y="20.1" class="st0" width="72.3" height="10.6"/>
		<path class="st0" d="M36.2,25.4"/>
	</g>
	<polygon class="st0" points="295.5,50.7 299.3,40.1 351.1,40.1 351.1,50.7 	"/>
	<polygon class="st0" points="278.3,40.1 282,50.7 227,50.7 227,40.1 	"/>
	<path class="st0" d="M197.8,40.1c0,3.7-0.5,7.5-1.5,10.7h-31.5V40.1H197.8z"/>
	<g>
		<rect x="20.2" y="40.1" class="st0" width="31.1" height="10.6"/>
		<path class="st0" d="M35.7,45.4"/>
	</g>
	<g>
		<rect x="102.6" y="40.1" class="st0" width="31" height="10.7"/>
		<path class="st0" d="M118.1,45.4"/>
	</g>
	<path class="st0" d="M257.6,62.2v8.1H227V59.7h58.2l3.6,9.9l3.5-9.9H351v10.6h-30.4v-8.1l-2.8,8.1h-57.4L257.6,62.2z"/>
	<path class="st0" d="M102.6,59.7h89.1l0,0c-1.9,3.6-5.5,7.9-8.8,10.6h-80.2C102.6,70.3,102.6,59.7,102.6,59.7z"/>
	<g>
		<rect x="20.2" y="59.7" class="st0" width="31.1" height="10.6"/>
		<path class="st0" d="M35.7,65"/>
	</g>
	<g>
		<rect x="320.7" y="79.7" class="st0" width="30.4" height="10.6"/>
		<path class="st0" d="M335.9,85"/>
	</g>
	<path class="st0" d="M257.6,79.7H227v10.6h30.6C257.6,90.3,257.6,79.7,257.6,79.7z"/>
	<path class="st0" d="M314.5,79.7c-0.1,0-3.6,10.6-3.7,10.6h-43.3l-3.8-10.6H314.5z"/>
	<path class="st0" d="M102.6,79.7h80.1c3.7,3,7,6.8,9.5,10.6c0.1,0-89.6,0-89.6,0C102.6,90.3,102.6,79.7,102.6,79.7z"/>
	<path class="st0" d="M51.2,90.3V79.7h-31v10.6C20.2,90.3,51.2,90.3,51.2,90.3z"/>
	<g>
		<rect x="320.7" y="99.7" class="st0" width="30.4" height="10.6"/>
		<path class="st0" d="M335.9,105"/>
	</g>
	<g>
		<rect x="227" y="99.7" class="st0" width="30.6" height="10.6"/>
		<path class="st0" d="M242.3,105"/>
	</g>
	<path class="st0" d="M303.7,110.4c0-0.1,3.8-10.7,3.8-10.7h-36.8c-0.1,0,3.8,10.6,3.8,10.6L303.7,110.4z"/>
	<path class="st0" d="M102.6,110.3V99.7h31.5v10.6H102.6z"/>
	<path class="st0" d="M196.7,99.7c1.5,3.2,1.7,7,2,10.7h-33.4V99.7H196.7z"/>
	<g>
		<rect x="20.2" y="99.7" class="st0" width="31" height="10.6"/>
		<path class="st0" d="M35.7,105"/>
	</g>
	<g>
		<rect x="320.7" y="119.3" class="st0" width="50.9" height="10.6"/>
		<path class="st0" d="M346.1,124.6"/>
	</g>
	<g>
		<rect x="206.7" y="119.3" class="st0" width="50.9" height="10.6"/>
		<path class="st0" d="M232.1,124.6"/>
	</g>
	<polygon class="st0" points="296.9,129.9 281.3,129.9 277.6,119.3 300.4,119.3 	"/>
	<path class="st0" d="M0,119.3v10.6h72.3v-10.6C72.3,119.3-0.1,119.3,0,119.3z"/>
	<path class="st0" d="M197.3,119.3c-0.8,3.5-1.5,7.8-4,10.6h-1H81.7v-10.6C81.7,119.3,197.3,119.3,197.3,119.3z"/>
	<polygon class="st0" points="289.8,150 288.4,150 284.8,139.3 293.5,139.3 	"/>
	<g>
		<rect x="320.7" y="139.3" class="st0" width="50.9" height="10.7"/>
		<path class="st0" d="M346.1,144.7"/>
	</g>
	<path class="st0" d="M81.7,150v-10.6c0,0,104.4,0,104.7,0c-7,6.7-16.6,10.5-27,10.6H81.7"/>
	<g>
		<rect x="206.7" y="139.3" class="st0" width="50.9" height="10.7"/>
		<path class="st0" d="M232.1,144.7"/>
	</g>
	<path class="st0" d="M72.3,139.4V150c0,0-72.2,0-72.3,0v-10.6C0,139.4,72.2,139.4,72.3,139.4z"/>
</g>
</svg>
