<?xml version="1.0" encoding="utf-8"?>
<!-- Generator: Adobe Illustrator 27.0.1, SVG Export Plug-In . SVG Version: 6.00 Build 0)  -->
<svg version="1.1" id="Layer_1" xmlns="http://www.w3.org/2000/svg" xmlns:xlink="http://www.w3.org/1999/xlink" x="0px" y="0px"
	 viewBox="0 0 264.4 72.1" style="enable-background:new 0 0 264.4 72.1;" xml:space="preserve">
<style type="text/css">
	.st0{fill:#6B6B6B;}
</style>
<g id="Group_4609" transform="translate(3410 20406.999)">
	<path id="Path_147" class="st0" d="M-3305.6-20335.6v-11.5c0-3.3-1.8-5.9-5.3-5.9c-3.3,0-5.6,2.8-5.6,6.2v11.2h-5.4v-22h4.9l0.4,3
		c2.2-2.2,4.5-3.3,7.2-3.3c5.2,0,9.3,3.9,9.3,10.8v11.6L-3305.6-20335.6z"/>
	<path id="Path_139" class="st0" d="M-3384.9-20406.8l-13.9,14.9l15,15.7v0.4h-7.3l-13.1-13.8v13.8h-5.9v-31.2h5.9v13.2l11.9-13.2
		h7.3L-3384.9-20406.8z"/>
	<path id="Path_140" class="st0" d="M-3364.6-20397.8h5.2v22h-5.1l-0.3-3.2c-1.2,2.6-4.7,3.8-7.1,3.9c-6.5,0-11.3-4-11.3-11.7
		c0-7.6,5-11.6,11.5-11.5c2.9,0,5.8,1.4,7,3.6L-3364.6-20397.8z M-3377.8-20386.8c0,4.2,2.9,6.7,6.5,6.7c8.6,0,8.6-13.3,0-13.3
		c-3.5-0.1-6.4,2.5-6.5,6C-3377.9-20387.2-3377.9-20387-3377.8-20386.8z"/>
	<path id="Path_141" class="st0" d="M-3349.8-20397.8l0.4,2.5c1.7-2.7,4-3.1,6.2-3.1c2.1,0,4.1,0.7,5.7,2.1l-2.5,4.7
		c-1.1-1-2.5-1.5-3.9-1.4c-2.9,0-5.5,1.5-5.5,5.6v11.6h-5.4v-22H-3349.8z"/>
	<path id="Path_142" class="st0" d="M-3330.1-20407v31.2h-5.4v-31.2H-3330.1z"/>
	<path id="Path_143" class="st0" d="M-3320.7-20384.8c0.4,2.7,2.7,4.7,6.6,4.7c2,0,4.6-0.8,5.9-2.1l3.5,3.4
		c-2.3,2.4-6.1,3.6-9.5,3.6c-7.6,0-12.1-4.7-12.1-11.7c0-6.7,4.5-11.5,11.7-11.5c7.4,0,12,4.6,11.1,13.6L-3320.7-20384.8z
		 M-3308.7-20389.3c-0.4-2.9-2.6-4.3-5.7-4.3c-2.9,0-5.4,1.4-6.2,4.3H-3308.7z"/>
	<path id="Path_144" class="st0" d="M-3400-20361.5h-9.9v-5.4h25.7v5.4h-9.9v25.9h-5.9L-3400-20361.5z"/>
	<path id="Path_145" class="st0" d="M-3365.3-20346.6c0,6.3-4.3,11.5-11.5,11.5c-7.1,0-11.4-5.1-11.4-11.5c0-6.3,4.4-11.5,11.4-11.5
		c6.1-0.2,11.3,4.6,11.5,10.7C-3365.2-20347.1-3365.2-20346.8-3365.3-20346.6z M-3382.7-20346.6c0,3.3,2,6.5,6,6.5c4,0,6-3.1,6-6.5
		c0-3.3-2.3-6.5-6-6.5C-3380.6-20353.1-3382.7-20349.9-3382.7-20346.6L-3382.7-20346.6z"/>
	<path id="Path_146" class="st0" d="M-3342.2-20357.6l4.8,16.5l5-16.5h6l-7.7,22.1h-6.3l-2.3-6.5l-2-7.4l-2,7.4l-2.3,6.5h-6.3
		l-7.7-22.1h6.1l5,16.5l4.8-16.5H-3342.2z"/>
	<path id="Path_148" class="st0" d="M-3258.5-20339.5c-3.2,3.1-7.4,4.7-11.9,4.6c-11.6,0-16.5-8-16.5-16.1c0-8.2,5.3-16.5,16.5-16.5
		c4.3,0,8.4,1.7,11.5,4.8l-3.9,3.8c-2-1.9-4.7-3-7.5-2.9c-7.5,0-10.8,5.6-10.7,10.8c0,5.2,3,10.6,10.7,10.6c2.9,0,5.7-1.2,7.8-3.2
		L-3258.5-20339.5z"/>
	<path id="Path_149" class="st0" d="M-3251.4-20344.7c0.4,2.7,2.7,4.7,6.6,4.7c2,0,4.6-0.8,5.9-2.1l3.5,3.4
		c-2.3,2.4-6.1,3.6-9.5,3.6c-7.6,0-12.1-4.7-12.1-11.7c0-6.7,4.5-11.5,11.7-11.5c7.4,0,12,4.6,11.1,13.6H-3251.4z M-3239.5-20349.2
		c-0.4-2.9-2.6-4.3-5.7-4.3c-2.9,0-5.4,1.4-6.2,4.3H-3239.5z"/>
	<path id="Path_150" class="st0" d="M-3213.9-20335.6v-11.5c0-3.3-1.8-5.9-5.3-5.9c-3.3,0-5.6,2.8-5.6,6.2v11.2h-5.4v-22h4.9l0.4,3
		c2.2-2.2,4.5-3.3,7.2-3.3c5.2,0,9.3,3.9,9.3,10.8v11.6L-3213.9-20335.6z"/>
	<path id="Path_151" class="st0" d="M-3197-20363.8v6.2h6.1v4.7h-6.1v9.5c0,2.1,1.2,3.1,2.9,3.1c0.9,0,1.8-0.3,2.6-0.7l1.5,4.6
		c-1.4,0.6-3,0.9-4.5,0.9c-4.8,0.2-7.9-2.5-7.9-8v-9.5h-4.1v-4.7h4.1v-5.7L-3197-20363.8z"/>
	<path id="Path_152" class="st0" d="M-3181.8-20357.6l0.4,2.5c1.7-2.7,4-3.1,6.2-3.1c2.1,0,4.1,0.7,5.7,2.1l-2.4,4.7
		c-1.1-1-2.5-1.5-3.9-1.4c-2.9,0-5.5,1.5-5.5,5.6v11.6h-5.4v-22H-3181.8z"/>
	<path id="Path_153" class="st0" d="M-3162.9-20344.7c0.4,2.7,2.7,4.7,6.6,4.7c2,0,4.6-0.8,5.9-2.1l3.5,3.4
		c-2.3,2.4-6.1,3.6-9.5,3.6c-7.6,0-12.1-4.7-12.1-11.7c0-6.7,4.6-11.5,11.7-11.5c7.4,0,12,4.6,11.1,13.6H-3162.9z M-3150.9-20349.2
		c-0.4-2.9-2.6-4.3-5.7-4.3c-2.9,0-5.4,1.4-6.2,4.3H-3150.9z"/>
</g>
</svg>
