<?xml version="1.0" encoding="utf-8"?>
<!-- Generator: Adobe Illustrator 27.0.0, SVG Export Plug-In . SVG Version: 6.00 Build 0)  -->
<svg version="1.1" id="Layer_1" xmlns="http://www.w3.org/2000/svg" xmlns:xlink="http://www.w3.org/1999/xlink" x="0px" y="0px"
	 viewBox="0 0 450 150" style="enable-background:new 0 0 450 150;" xml:space="preserve">
<style type="text/css">
	.st0{fill:#656765;}
</style>
<g>
	<path class="st0" d="M378.7,64.1c-8.9,0-15.3,6.7-15.3,16.3c0,9.1,6.8,16.3,15.5,16.3c8.9,0,15.3-6.9,15.3-16.3
		C394.2,71.3,387.4,64.1,378.7,64.1L378.7,64.1z"/>
	<path class="st0" d="M256.7,64.1c-8.9,0-15.3,6.7-15.3,16.3c0,9.1,6.8,16.3,15.5,16.3c8.9,0,15.3-6.9,15.3-16.3
		C272.2,71.3,265.4,64.1,256.7,64.1L256.7,64.1z"/>
	<path class="st0" d="M126.2,63.2c-5.2,0-9.5,2.1-12.2,5.8c-2.5,3.3-4,7.9-3.2,13.8l27.7-11.5C136.3,66.4,131.9,63.2,126.2,63.2
		L126.2,63.2z"/>
	<path class="st0" d="M378.7,110.2c-17.3,0-30.9-12.9-30.9-29.8c0-16.7,13.7-29.8,31.1-29.8c17.3,0,30.9,12.9,30.9,29.8
		C409.9,97.1,396.2,110.2,378.7,110.2L378.7,110.2z M309.1,109.2l-23.8-57.7h18.1l14.3,39.3L332,51.5h18.1l-23.8,57.7H309.1
		L309.1,109.2z M256.7,110.2c-17.3,0-30.9-12.9-30.9-29.8c0-16.7,13.7-29.8,31.1-29.8c17.3,0,30.9,12.9,30.9,29.8
		C287.8,97.1,274.1,110.2,256.7,110.2L256.7,110.2z M219.5,109.3h-15.9V76.4c0-7.6-6.8-12.2-13.3-12.2c-8.5,0-13.1,6.3-13.1,12.2
		v32.8h-15.9V51.5h15.9v8.3l0,0l0,0c4.6-6.2,12.2-9.2,18.8-9.2c13.9,0,23.4,9.6,23.4,22.9v35.8H219.5z M127.9,97.6
		c6.1,0,9.9-1.2,16.6-6.1l10,7.7c-5.1,5.9-16.1,11-26.8,11c-19.1,0-32.3-12.4-32.3-29.8c0-17,13.1-29.8,30.6-29.8
		c9.6,0,17.5,3.3,22.8,9.5c3.7,4.3,6,9.9,6.9,16.1L115.2,93C118.2,95.9,122.5,97.6,127.9,97.6L127.9,97.6z M93.9,109.3H41.8v-75
		h16.1v60.4h36V109.3L93.9,109.3z M0,0v150h450V0H0L0,0z"/>
</g>
</svg>
