<?xml version="1.0" encoding="utf-8"?>
<!-- Generator: Adobe Illustrator 27.0.0, SVG Export Plug-In . SVG Version: 6.00 Build 0)  -->
<svg version="1.1" id="Layer_1" xmlns="http://www.w3.org/2000/svg" xmlns:xlink="http://www.w3.org/1999/xlink" x="0px" y="0px"
	 viewBox="0 0 702.4 150" style="enable-background:new 0 0 702.4 150;" xml:space="preserve">
<style type="text/css">
	.st0{fill:#656765;}
</style>
<g>
	<path class="st0" d="M0,0h71.4c0,23.8,0,47.6,0,71.4c-23.8,0-47.6,0-71.4,0V0L0,0z"/>
	<path class="st0" d="M78.6,0H150c0,23.8,0,47.6,0,71.4c-23.8,0-47.6,0-71.3,0C78.6,47.6,78.6,23.8,78.6,0L78.6,0z"/>
	<path class="st0" d="M643.5,27.2c6.6-4.3,15.1-4.7,22.5-2.6c0.1,4.4,0,8.8,0,13.2c-3.5-1.6-7.7-2.6-11.4-1
		c-2.9,1.2-4.7,4.2-5.1,7.2c-0.6,3.8-0.2,7.7-0.3,11.6c7.5,0,15.1,0,22.6,0c0.1-4.9-0.1-9.8,0.1-14.7c5.1-1.5,10.2-3.1,15.3-4.6
		c0,6.4-0.1,12.9,0.1,19.3c5.1-0.1,10.2,0,15.3,0V68c-5.1-0.2-10.2-0.1-15.3-0.1c0,7.2,0,14.4,0,21.6c0.1,4-0.2,8,0.3,12
		c0.3,2.3,1.1,4.9,3.3,6.2c3.7,2.1,8.4,1.2,11.7-1.1v12.7c-4.4,1.9-9.3,2.5-14.1,2.2c-4.5-0.3-9.2-2-12.2-5.6
		c-3.4-4.1-4.3-9.6-4.4-14.7c0-11.1,0-22.1,0-33.2c-7.5,0-15.1,0-22.6,0c0,17.4,0,34.7,0,52.1c-5.1,0-10.3,0-15.4,0
		c0-17.3,0-34.7,0-52c-3.6-0.1-7.2,0-10.7-0.1c0-4.1,0-8.2,0-12.4c3.6-0.1,7.1,0,10.7,0c0.3-5.5-0.6-11.1,1.1-16.4
		C636.2,34.3,639.2,29.9,643.5,27.2L643.5,27.2z"/>
	<path class="st0" d="M313.1,28.1c3.1-0.5,6.5,0.6,8.5,3c2.4,2.7,2.9,6.9,1.1,10c-2,3.5-6.4,5.1-10.3,4.3c-4-0.7-7.3-4.4-7.2-8.6
		C305.1,32.5,308.8,28.6,313.1,28.1L313.1,28.1z"/>
	<path class="st0" d="M194.8,30c7.5,0,15,0,22.4,0c7,17.7,14,35.5,21,53.2c1.8,4.4,3.5,8.9,5.3,13.3c9-22.2,18.1-44.3,27-66.5
		c7.2-0.1,14.4,0,21.6,0c0,30,0,60,0,90c-5.2,0-10.4,0-15.6,0c0.1-22.1,0-44.3,0-66.4c0-1,0-2-0.1-3c-0.3,0.5-0.6,0.9-0.8,1.4
		c-8.9,22.7-18,45.3-26.9,67.9c-3.7,0.1-7.4,0-11.1,0.1c-9.2-22.7-18.3-45.4-27.4-68c-0.2-0.5-0.5-0.9-0.8-1.4
		c-0.2,9.7,0,19.4-0.1,29.1c0,13.4,0,26.9,0,40.3c-4.9,0-9.8,0-14.7,0C194.8,90,194.8,60,194.8,30L194.8,30z"/>
	<path class="st0" d="M355.5,55.4c7.4-2.1,15.5-2,22.9,0.1c1.5,0.4,3,1,4.4,1.8c-0.1,4.9,0,9.8,0,14.8c-5-3.8-11.3-6.2-17.6-5.4
		c-5,0.5-9.8,3.1-12.8,7.1c-3.9,5-4.8,11.7-4.1,17.9c0.5,4.8,2.5,9.6,6.2,12.8c3.9,3.5,9.3,4.7,14.4,4.3c5-0.6,9.8-2.7,13.8-5.7
		c0,4.7,0,9.3,0,14c-6.3,3.8-13.9,4.7-21.1,4.4c-7.4-0.4-14.8-3.2-20.1-8.4c-5.8-5.6-9-13.6-9.3-21.6c-0.4-8.3,1.3-17,6.1-23.9
		C342.4,61.6,348.7,57.4,355.5,55.4L355.5,55.4z"/>
	<path class="st0" d="M524.1,54.5c7.1-1.3,14.6-0.3,21.4,2.2c0,4.7,0,9.5,0,14.2c-4.7-3.2-10.5-5-16.2-4.8c-2.9,0.1-6.1,1.3-7.4,4.1
		c-1,2.7-0.3,6.3,2.2,7.9c4.4,2.9,9.6,4.2,14.1,6.8c3.6,2,7,4.6,8.8,8.4c3.4,7.1,2,16.4-4,21.7c-5.7,5.3-13.9,6.8-21.5,6.5
		c-5.4-0.3-10.8-1.4-15.7-3.6c0-5,0-9.9,0-14.9c4.1,3,8.9,5.2,14,6c3.5,0.6,7.4,0.6,10.7-1c3.1-1.6,3.7-6,1.8-8.8
		c-1.7-2.1-4.3-3.3-6.7-4.4c-4.5-2-9.3-3.8-13.3-6.8c-2.8-2.2-4.9-5.3-5.8-8.8c-1.2-5.1-0.8-10.9,2.1-15.4
		C512.2,58.7,518.1,55.5,524.1,54.5L524.1,54.5z"/>
	<path class="st0" d="M417.4,56.5c4.3-2.6,9.7-2.8,14.3-1.2c0,5.1,0,10.3,0,15.4c-3-2-6.8-2.8-10.4-2.5c-4.4,0.5-7.9,3.9-9.7,7.7
		c-2,4.1-2.3,8.7-2.2,13.2c0,10.3,0,20.6,0,30.8c-5.1,0-10.1,0-15.2,0c0-21.5,0-43,0-64.5c5.1-0.1,10.2,0,15.2,0c0,3.7,0,7.4,0,11.1
		C411,62.6,413.5,58.7,417.4,56.5L417.4,56.5z"/>
	<path class="st0" d="M306.6,55.5c5.1,0,10.2-0.1,15.4,0c-0.1,21.5,0,43,0,64.5c-5.1,0-10.2,0-15.3,0
		C306.6,98.5,306.6,77,306.6,55.5L306.6,55.5z"/>
	<path class="st0" d="M495.7,70.6c-2.7-6-7.5-10.9-13.5-13.6c-6.9-3.1-14.7-3.5-22.1-2.6c-7.8,1-15.4,4.6-20.3,10.8
		c-4.5,5.5-6.7,12.7-7.1,19.7c-0.6,8.3,0.8,17.1,5.7,24.1c4.2,6,10.7,10.1,17.8,11.6c5.9,1.2,12.1,1.3,18.1,0
		c6.9-1.4,13.4-5.3,17.7-10.9c4.2-5.3,6.3-12.1,6.8-18.8C499.2,84,498.5,76.9,495.7,70.6z M480.8,100.2c-1.5,3.3-4.2,6.1-7.6,7.4
		c-4,1.5-8.5,1.6-12.6,0.6c-4.2-1.1-7.7-4.1-9.7-8c-2.5-5-2.9-10.7-2.3-16.1c0.5-5,2.2-10,6-13.5c2.7-2.6,6.5-3.8,10.2-4
		c4.6-0.3,9.6,1,12.9,4.4c3.6,3.5,4.9,8.6,5.3,13.4C483.2,89.7,483,95.2,480.8,100.2z"/>
	<path class="st0" d="M619.3,72.4c-2.4-6.4-7.1-11.9-13.3-15c-7-3.5-15.2-4.1-22.9-3.1c-6.2,0.8-12.3,3.2-17.1,7.3
		c-5.8,5-9.2,12.3-10.2,19.8s-0.6,15.4,2.4,22.4c2.9,6.9,8.7,12.5,15.7,15.2c6.9,2.7,14.5,3,21.7,1.8c7.4-1.2,14.4-5.1,19-11.1
		c4.9-6.2,7-14.2,7-22C621.8,82.6,621.1,77.3,619.3,72.4z M605.3,94.3c-0.6,3.4-1.8,6.8-4,9.5s-5.6,4.3-9,4.9
		c-3.7,0.6-7.6,0.3-11-1.2c-3.7-1.6-6.6-4.8-8.1-8.5c-1.8-4.4-2.2-9.3-1.8-14.1c0.4-4.6,1.6-9.3,4.7-12.8c2.8-3.3,7-5.2,11.3-5.4
		c4.4-0.3,9,0.7,12.4,3.6c3.1,2.6,4.8,6.4,5.6,10.3C606.1,85,606.1,89.7,605.3,94.3z"/>
	<path class="st0" d="M0,78.6c23.8,0,47.6,0,71.4,0c0,23.8,0,47.6,0,71.4H0V78.6L0,78.6z"/>
	<path class="st0" d="M78.6,78.6c23.8,0,47.6,0,71.4,0c0,23.8,0,47.6,0,71.4H78.6C78.6,126.2,78.6,102.4,78.6,78.6L78.6,78.6z"/>
</g>
</svg>
