<?xml version="1.0" encoding="utf-8"?>
<!-- Generator: Adobe Illustrator 27.0.0, SVG Export Plug-In . SVG Version: 6.00 Build 0)  -->
<svg version="1.1" id="Layer_1" xmlns="http://www.w3.org/2000/svg" xmlns:xlink="http://www.w3.org/1999/xlink" x="0px" y="0px"
	 viewBox="0 0 406.9 150" style="enable-background:new 0 0 406.9 150;" xml:space="preserve">
<style type="text/css">
	.st0{fill:#656765;}
</style>
<g>
	<g>
		<g>
			<path class="st0" d="M7.4,149.7H4.8v-12.6H0v-2.4h12.2v2.4H7.4V149.7z"/>
		</g>
		<g>
			<path class="st0" d="M17.6,143.4v6.3H15v-15h2.6v6.2h7.2v-6.2h2.6v15h-2.6v-6.3H17.6z"/>
		</g>
		<g>
			<path class="st0" d="M42.4,137.1h-8.5v3.9h7.5v2.4h-7.5v4h8.6v2.4H31.3v-15h11.1V137.1z"/>
		</g>
		<g>
			<path class="st0" d="M59.2,150c-4.6,0-7.8-3.5-7.8-7.7s3.3-7.8,7.9-7.8s7.8,3.5,7.8,7.7C67.1,146.5,63.8,150,59.2,150z
				 M59.2,136.9c-3,0-5.1,2.4-5.1,5.3c0,2.9,2.1,5.4,5.1,5.4s5.1-2.4,5.1-5.3C64.3,139.3,62.2,136.9,59.2,136.9z"/>
		</g>
		<g>
			<path class="st0" d="M82.9,143.3c0,4.5-2.5,6.7-6.5,6.7c-3.9,0-6.4-2.2-6.4-6.6v-8.6h2.6v8.5c0,2.8,1.4,4.3,3.8,4.3
				c2.3,0,3.8-1.4,3.8-4.2v-8.6h2.6L82.9,143.3L82.9,143.3z"/>
		</g>
		<g>
			<path class="st0" d="M92.9,149.7h-2.7v-12.6h-4.8v-2.4h12.2v2.4h-4.8v12.6H92.9z"/>
		</g>
		<g>
			<path class="st0" d="M106,149.7h-5.6v-15h5.6c4.7,0,8,3.2,8,7.5S110.7,149.7,106,149.7z M106,137.1h-3v10.2h3
				c3.1,0,5.2-2.1,5.2-5.1S109.2,137.1,106,137.1z"/>
		</g>
		<g>
			<path class="st0" d="M124.4,150c-4.6,0-7.8-3.5-7.8-7.7s3.3-7.8,7.9-7.8c4.6,0,7.8,3.5,7.8,7.7C132.2,146.5,129,150,124.4,150z
				 M124.4,136.9c-3,0-5.1,2.4-5.1,5.3c0,2.9,2.1,5.4,5.1,5.4s5.1-2.4,5.1-5.3C129.5,139.3,127.3,136.9,124.4,136.9z"/>
		</g>
		<g>
			<path class="st0" d="M142.6,150c-4.6,0-7.8-3.5-7.8-7.7s3.3-7.8,7.9-7.8c4.6,0,7.8,3.5,7.8,7.7C150.4,146.5,147.2,150,142.6,150z
				 M142.6,136.9c-3,0-5.1,2.4-5.1,5.3c0,2.9,2.1,5.4,5.1,5.4s5.1-2.4,5.1-5.3C147.7,139.3,145.6,136.9,142.6,136.9z"/>
		</g>
		<g>
			<path class="st0" d="M163.3,149.7l-3.7-5.2h-3.3v5.2h-2.6v-15h6.7c3.4,0,5.6,1.8,5.6,4.8c0,2.5-1.5,4-3.6,4.6l4,5.7h-3.1V149.7z
				 M160.1,137.1h-3.8v5h3.9c1.9,0,3.1-1,3.1-2.5C163.2,138,162.1,137.1,160.1,137.1z"/>
		</g>
		<g>
			<path class="st0" d="M185.2,149.7l-3.7-5.2h-3.3v5.2h-2.6v-15h6.7c3.4,0,5.6,1.8,5.6,4.8c0,2.5-1.5,4-3.6,4.6l4,5.7h-3.1V149.7z
				 M182.1,137.1h-3.8v5h3.9c1.9,0,3.1-1,3.1-2.5C185.2,138,184,137.1,182.1,137.1z"/>
		</g>
		<g>
			<path class="st0" d="M202.2,137.1h-8.5v3.9h7.5v2.4h-7.5v4h8.6v2.4h-11.2v-15h11.1L202.2,137.1L202.2,137.1z"/>
		</g>
		<g>
			<path class="st0" d="M212.4,150c-4.4,0-7.6-3.4-7.6-7.7s3.2-7.8,7.7-7.8c2.8,0,4.4,1,5.9,2.3l-1.7,2c-1.2-1.1-2.5-1.9-4.2-1.9
				c-2.9,0-5,2.4-5,5.3s2.1,5.4,5,5.4c1.8,0,3-0.8,4.3-2l1.7,1.7C216.9,149,215.2,150,212.4,150z"/>
		</g>
		<g>
			<path class="st0" d="M230.9,149.7l-3.7-5.2h-3.3v5.2h-2.6v-15h6.7c3.4,0,5.6,1.8,5.6,4.8c0,2.5-1.5,4-3.6,4.6l4,5.7h-3.1V149.7z
				 M227.8,137.1H224v5h3.9c1.9,0,3.1-1,3.1-2.5C230.9,138,229.7,137.1,227.8,137.1z"/>
		</g>
		<g>
			<path class="st0" d="M247.9,137.1h-8.5v3.9h7.5v2.4h-7.5v4h8.6v2.4h-11.2v-15h11.1L247.9,137.1L247.9,137.1z"/>
		</g>
		<g>
			<path class="st0" d="M265.5,149.7h-2.8l-1.5-3.6h-7.1l-1.5,3.6h-2.7l6.6-15.1h2.4L265.5,149.7z M257.7,137.8l-2.6,6h5.2
				L257.7,137.8z"/>
		</g>
		<g>
			<path class="st0" d="M272.5,149.7h-2.7v-12.6H265v-2.4h12.2v2.4h-4.8L272.5,149.7L272.5,149.7z"/>
		</g>
		<g>
			<path class="st0" d="M282.9,134.7v15h-2.6v-15H282.9z"/>
		</g>
		<g>
			<path class="st0" d="M294,150c-4.6,0-7.8-3.5-7.8-7.7s3.3-7.8,7.9-7.8s7.8,3.5,7.8,7.7C301.9,146.5,298.6,150,294,150z
				 M294,136.9c-3,0-5.1,2.4-5.1,5.3c0,2.9,2.1,5.4,5.1,5.4s5.1-2.4,5.1-5.3C299.1,139.3,297,136.9,294,136.9z"/>
		</g>
		<g>
			<path class="st0" d="M315.6,134.7h2.6v15H316l-8.3-10.7v10.7h-2.6v-15h2.4l8,10.4v-10.4H315.6z"/>
		</g>
		<g>
			<path class="st0" d="M335.6,150c-4.7,0-7.8-3.3-7.8-7.7c0-4.2,3.2-7.8,7.7-7.8c2.6,0,4.2,0.7,5.8,2l-1.7,2
				c-1.2-1-2.3-1.6-4.2-1.6c-2.8,0-4.9,2.4-4.9,5.3c0,3.1,2,5.4,5.1,5.4c1.4,0,2.7-0.5,3.6-1.1v-2.8h-3.8v-2.3h6.4v6.3
				C340.4,148.9,338.2,150,335.6,150z"/>
		</g>
		<g>
			<path class="st0" d="M354.9,149.7l-3.7-5.2h-3.3v5.2h-2.6v-15h6.7c3.4,0,5.6,1.8,5.6,4.8c0,2.5-1.5,4-3.6,4.6l4,5.7h-3.1V149.7z
				 M351.8,137.1H348v5h3.9c1.9,0,3.1-1,3.1-2.5C354.9,138,353.7,137.1,351.8,137.1z"/>
		</g>
		<g>
			<path class="st0" d="M367.9,150c-4.6,0-7.8-3.5-7.8-7.7s3.3-7.8,7.9-7.8s7.8,3.5,7.8,7.7C375.8,146.5,372.6,150,367.9,150z
				 M367.9,136.9c-3,0-5.1,2.4-5.1,5.3c0,2.9,2.1,5.4,5.1,5.4s5.1-2.4,5.1-5.3C373,139.3,370.9,136.9,367.9,136.9z"/>
		</g>
		<g>
			<path class="st0" d="M391.6,143.3c0,4.5-2.5,6.7-6.4,6.7s-6.4-2.2-6.4-6.6v-8.6h2.6v8.5c0,2.8,1.4,4.3,3.8,4.3
				c2.3,0,3.8-1.4,3.8-4.2v-8.6h2.6V143.3z"/>
		</g>
		<g>
			<path class="st0" d="M400.9,144.9h-3v4.8h-2.6v-15h5.9c3.5,0,5.7,2,5.7,5C406.9,143.2,404.2,144.9,400.9,144.9z M400.9,137.1
				h-3.1v5.4h3.1c2,0,3.2-1.1,3.2-2.7C404.2,138.1,402.9,137.1,400.9,137.1z"/>
		</g>
	</g>
	<g>
		<g>
			<g>
				<path class="st0" d="M77.4,0.1H1.8H0v10.1L0.1,12h32.6v92.8l0.1,1.8h10.5l1.8-0.1V12.1h30.6l1.8-0.1V1.9L77.4,0.1z M37.8,101
					l-3.5,3.9V11.3l3.5,2.7V101z M75.8,5.1H1.7V1.7h74.1C75.8,1.7,75.8,5.1,75.8,5.1z"/>
				<path class="st0" d="M172.8,12.3c-8.1-7-18.4-11.2-29.1-12c-18.5-1.4-34,5-46,19.1c-7,8.1-11.2,18.4-12,29.1
					c-1.4,18.5,5,34,19.1,46c8.1,7,18.4,11.2,29.1,12c1.7,0.1,3.3,0.2,4.9,0.2c16.3,0,30.1-6.5,41.1-19.3c7-8.1,11.2-18.4,12-29.1
					C193.3,39.9,186.9,24.4,172.8,12.3z M87.2,52.9c0-27.2,23.1-51.1,49.3-51.1v3.5c-24.4,0-45.8,22.2-45.8,47.5L87.2,52.9
					L87.2,52.9z M109.6,82.5c-8-8-12.1-17.8-12.1-29.2c0-11.3,4.1-21.1,12.1-29.2s17.8-12.2,29.1-12.2s21.1,4.1,29.2,12.2
					c8.1,8,12.2,17.8,12.2,29.1s-4.1,21.1-12.2,29.1l0,0c-8,8-17.8,12.1-29.2,12.1C127.4,94.6,117.6,90.6,109.6,82.5z M172.8,85.8
					c-9,9.5-21.9,14.4-37.3,14.4v-3.5c32.1,0,46.5-22.4,46.5-44.6h3.5C185.6,65.2,181.1,77.2,172.8,85.8z"/>
				<path class="st0" d="M401.8,44.8h-50.4l-1.9,0.2v9.9l0.2,1.9H390v28c-7.6,6.5-16.6,9.8-26.7,9.8c-11.3,0-21.1-4.1-29.2-12.1
					c-8-8-12.1-17.8-12.1-29.2c0-11.3,4.1-21.1,12.1-29.2s17.8-12.2,29.1-12.2c9.2,0,17.7,2.9,25,8.5l3.6,2.7l0.7,0.4l1.4-0.3
					l6.5-8.9l-5-3.7C384.2,2.2,370.9-1.3,356,0.4c-9.6,1.1-18.5,4.9-25.9,11c-13.4,11.2-20.3,25.3-20.3,41.9
					c0,14.7,5.3,27.3,15.7,37.7c10.4,10.4,23,15.7,37.7,15.7c10.4,0,22.2-3.5,29.4-8.8c6.2-4.5,8.8-8.1,9-8.4L402,89V46.7
					L401.8,44.8z M311.8,53.1c0-13.2,4.1-24.5,12.2-33.7c9.6-10.9,24.1-17.7,37.8-17.7v3.6c-12.7,0-26.2,6.3-35.1,16.4
					c-7.5,8.5-11.4,19.1-11.4,31.4H311.8z M395.2,87.2l-0.2,0.2c-7.9,8.3-20,12.7-33.1,12.7v-3.5c11.8,0,22.6-3.7,29.9-10.9V56.1
					l3.5,2.7L395.2,87.2L395.2,87.2z M351.2,49.8v-3.4h49.2v3.4H351.2z"/>
				<path class="st0" d="M277.9,48.9c5.1-5.5,7.6-11.9,7.6-19.1c0-8.1-3.1-15.2-9.3-20.9c-6.2-5.7-13.8-8.6-22.5-8.6H217l-1.8,0.1
					v103.9l0.1,1.8h10.2l1.8-0.1V59.3h21.2l5,10.2l0,0L271,105l0.5,1H282h1l1-1.7l-22.6-45.9C268,57,273.5,53.8,277.9,48.9z
					 M273.7,29.8c0,4.8-1.8,8.8-5.6,12.2c-3.8,3.5-8.3,5.2-13.7,5.3h-27V12.2h26.5c5.6,0,10.2,1.7,14.1,5.3
					C271.8,20.9,273.7,24.9,273.7,29.8z M220.4,52.4v52H217V5.1V2.5V1.8h37.9v3.4h-34.4v43.7h34.2c0.8,0,18.7-0.6,21-18.3l3.5,0.5
					c-2.7,20.8-25,21.4-25.2,21.4L220.4,52.4L220.4,52.4z M262.2,63.1l20.2,41.4h-3.9l-21.9-44.6L262.2,63.1z"/>
			</g>
		</g>
		<g>
			<g>
				<path class="st0" d="M399.2,101.4v4.1h-1.1v-4.1h-1.6v-1.1h4.3v1.1H399.2z"/>
			</g>
			<g>
				<path class="st0" d="M405.7,105.5v-3.4l-1.5,2.2l0,0l-1.4-2.2v3.4h-1.1v-5.2h1.2l1.4,2.2l1.4-2.2h1.2v5.2H405.7z"/>
			</g>
		</g>
	</g>
</g>
</svg>
