<?xml version="1.0" encoding="utf-8"?>
<!-- Generator: Adobe Illustrator 27.0.0, SVG Export Plug-In . SVG Version: 6.00 Build 0)  -->
<svg version="1.1" id="Layer_1" xmlns="http://www.w3.org/2000/svg" xmlns:xlink="http://www.w3.org/1999/xlink" x="0px" y="0px"
	 viewBox="0 0 300.2 150" style="enable-background:new 0 0 300.2 150;" xml:space="preserve">
<style type="text/css">
	.st0{fill-rule:evenodd;clip-rule:evenodd;fill:#656765;}
</style>
<g>
	<g>
		<path class="st0" d="M163.7,7.6h11.8v10.3h9.4v8.3h-9.4v20c0,3.6,2.1,6,5.7,6c1.9,0,2.9-0.2,3.3-0.3v7.2c-0.5,0.2-3.8,1.2-8.2,1.2
			c-9.7,0-12.7-6.2-12.7-14L163.7,7.6L163.7,7.6z"/>
		<path class="st0" d="M273.1,17.9h-11.8v41.2h12V34.3c0-5,2.6-8.3,7.5-8.3c5.4,0,7.5,4,7.5,8.3v24.8h12V31.5
			c0-8.4-4.7-14.8-14.7-14.8c-8.2,0-11.1,4.8-11.8,6.2h-0.2v-5C273.6,17.9,273.1,17.9,273.1,17.9z"/>
		<path class="st0" d="M257.3,16.7c-10.8,0-13.4,6-14,7.9h-0.2v-6.7h-10.8v41.2h12V38.6c0-8.8,5.9-12.4,13-12.4V16.7z"/>
		<path class="st0" d="M150,29.5l7.6-5.2c-1-1.7-5-7.8-17-7.8c-8.8,0-16.3,4.5-16.3,12.6c0,7.4,5.4,11,11.4,12.9
			c1.7,0.5,3.6,1,5.2,1.6c3.3,1,5.7,1.9,5.7,4.3c0,2.2-2.4,3.8-6.8,3.8c-5.5,0-8.2-3.3-9-4.8l-8,4.5c0.7,1.9,5,8.8,17.9,8.8
			c9.7,0,17.9-4.1,17.9-13.1c0-7.6-5.4-11-11.8-12.9c-1.6-0.5-3.1-1-4.7-1.4c-2.9-0.9-5.9-1.7-5.9-4.3c0-2.1,1.9-3.3,5.4-3.3
			C147.4,25.2,149.3,28.4,150,29.5"/>
		<polygon class="st0" points="71.4,0 60.5,42 49.8,0 34.9,0 23.8,43.2 12.7,0 0,0 15.4,59.1 31.2,59.1 42,17.2 52.7,59.1 
			67.6,59.1 83.1,0 		"/>
		<path class="st0" d="M91.4,33.9c0.5-4.7,2.9-8.8,8.7-8.8c5.4,0,8.2,3.8,8.7,8.8H91.4z M120.5,38.4c0-10.9-6.4-21.7-20.5-21.7
			c-12.7,0-20.6,9.5-20.6,21.7s7.8,21.7,21.2,21.7c11.6,0,16.1-6.9,17.2-9.1l-8-4.7c-0.5,1-2.6,5.2-9,5.2c-5.2,0-8.8-4-9.2-9.6h29.3
			C120.5,42,120.5,38.6,120.5,38.4"/>
		<path class="st0" d="M197.7,33.9c0.5-4.7,2.9-8.8,8.7-8.8c5.4,0,8.2,3.8,8.7,8.8H197.7z M226.8,38.4c0-10.9-6.4-21.7-20.5-21.7
			c-12.7,0-20.6,9.5-20.6,21.7s7.8,21.7,21.2,21.7c11.6,0,16.1-6.9,17.2-9.1l-8-4.7c-0.5,1-2.6,5.2-9,5.2c-5.2,0-8.8-4-9.2-9.6h29.3
			C226.8,42,226.8,38.6,226.8,38.4"/>
	</g>
	<g>
		<path class="st0" d="M146.9,82.3h11.8v10.3h9.4v8.3h-9.4v20c0,3.6,2.1,6,5.7,6c1.9,0,2.9-0.2,3.3-0.3v7.2
			c-0.5,0.2-3.8,1.2-8.2,1.2c-9.7,0-12.7-6.2-12.7-14L146.9,82.3L146.9,82.3z"/>
		<path class="st0" d="M23.4,124h-6.8V84.5h6.8c15.4,0,17.7,10.3,17.7,19.8C41.3,113.6,39,124,23.4,124 M24.3,74.7H4v59.1h20.3
			c18.9,0,30.2-9,30.2-29.6C54.3,83.7,42.7,74.7,24.3,74.7"/>
		<rect x="215.9" y="74.7" class="st0" width="12.3" height="59.1"/>
		<path class="st0" d="M239.8,134.1c-2.3,0-4.2-1.9-4.2-4.1c0-2.2,1.9-4.1,4.2-4.1s4.2,1.9,4.2,4.1
			C244,132.3,242.1,134.1,239.8,134.1 M239.8,124.8c-2.8,0-5,2.2-5,5s2.3,5,5,5c2.8,0,5-2.2,5-5
			C244.8,127.1,242.6,124.8,239.8,124.8"/>
		<path class="st0" d="M239.8,129.5h-0.9v-1.7h0.9c0.7,0,1,0.5,1,0.9C240.9,129.2,240.5,129.5,239.8,129.5 M241.7,131
			c0-0.7-0.3-1-0.9-1.2c0.5-0.2,1-0.5,1-1.4c0-1.2-0.9-1.6-2.1-1.6h-1.9v5.9h1v-2.4h0.7c0.7,0,1,0.3,1.2,1.4c0,0.3,0.2,1,0.2,1h1
			C241.9,132.8,241.7,131.7,241.7,131"/>
		<path class="st0" d="M99.2,124.2c-6.8,0-8-6.5-8-11.9c0-6,1.7-11.9,8-11.9c6.2,0,8,5.9,8,11.9C107.2,117.4,105.8,124.2,99.2,124.2
			 M107.2,92.6v4.5H107c-0.7-1.2-3.6-5.7-11.3-5.7c-12.7,0-17.3,10.3-17.3,20.8s4.7,20.7,17.3,20.7c7.8,0,10.7-4.5,11.3-5.7h0.2v4.8
			c0,5.7-4,9.1-8.8,9.1c-5.4,0-8.3-3.6-9-5c-1,0.5-8,4.7-8,4.7c0.9,1.7,4.3,9.1,17.3,9.1c13.7,0,20.3-8.6,20.3-20.8V92.6H107.2z"/>
		<path class="st0" d="M195.8,117.4c0,4.8-2.1,9.1-7.3,9.1c-3.5,0-6.1-2.1-6.1-5.5s2.4-6,8.7-6h4.7L195.8,117.4L195.8,117.4z
			 M188,91.4c-10.9,0-15.1,5.9-16.3,7.2l6.9,5.2c1-1.6,3.8-4.1,8.5-4.1c5.4,0,8.7,2.6,8.7,7.1v0.9h-5.2c-12.1,0-19.9,4.5-19.9,13.8
			c0,8.1,5.7,13.3,13.5,13.3c8.3,0,11.3-4.5,11.8-5.3h0.2v4.1h11.6v-25.7C207.7,95.9,198.2,91.4,188,91.4"/>
		<rect x="60.5" y="92.6" class="st0" width="12.3" height="41.2"/>
		<path class="st0" d="M73.3,80.2c0,3.6-3,6.5-6.6,6.5s-6.6-2.9-6.6-6.5s2.9-6.5,6.6-6.5S73.3,76.6,73.3,80.2"/>
		<rect x="126.9" y="92.6" class="st0" width="12.3" height="41.2"/>
		<path class="st0" d="M139.8,80.2c0,3.6-3,6.5-6.6,6.5s-6.6-2.9-6.6-6.5s2.9-6.5,6.6-6.5S139.8,76.6,139.8,80.2"/>
	</g>
</g>
</svg>
